<svg width="90" height="90" viewBox="0 0 90 90" fill="none" xmlns="http://www.w3.org/2000/svg">
            <path d="M48.75 67.5C48.75 69.5711 47.0711 71.25 45 71.25C42.9289 71.25 41.25 69.5711 41.25 67.5C41.25 65.4289 42.9289 63.75 45 63.75C47.0711 63.75 48.75 65.4289 48.75 67.5Z" fill="#FF0000" />
            <path fillRule="evenodd" clipRule="evenodd" d="M45 7.5C46.3619 7.5 47.6167 8.23834 48.2781 9.42884L85.7781 76.9288C86.4234 78.0903 86.4058 79.5066 85.732 80.6517C85.0582 81.7969 83.8287 82.5 82.5 82.5H7.5C6.1713 82.5 4.9418 81.7969 4.26798 80.6517C3.59416 79.5066 3.57664 78.0903 4.22191 76.9288L41.7219 9.42884C42.3833 8.23834 43.6381 7.5 45 7.5ZM13.8732 75H76.1268L45 18.9717L13.8732 75ZM45 33.75C47.0711 33.75 48.75 35.4289 48.75 37.5V52.5C48.75 54.5711 47.0711 56.25 45 56.25C42.9289 56.25 41.25 54.5711 41.25 52.5V37.5C41.25 35.4289 42.9289 33.75 45 33.75Z" fill="#FF0000" />
          </svg>